<svg xmlns="http://www.w3.org/2000/svg" height="24" width="24" viewBox="0 0 24 24">
    <path fill="none" d="M0 0h24v24H0z"/>
    <path fill="rgb(255, 255, 255)" d="M12,8.17l7.66,13.51l-0.45,0.45L12,19.43l-7.21,2.7l-0.45-0.45L12,8.17z M21.73,17.41l-8.56-14.87C12.94,2.14,12.5,1.87,12,1.87c-0.5,0-0.94,0.27-1.17,0.68L2.27,17.41c-0.12,0.2-0.18,0.43-0.18,0.67c0,0.75,0.6,1.35,1.35,1.35h0.47L10.71,7.44L12,5.16l1.29,2.28l6.8,12h0.47c0.75,0,1.35-0.6,1.35-1.35C21.91,17.84,21.85,17.6,21.73,17.41z"/>
</svg>
