<svg xmlns="http://www.w3.org/2000/svg" width="1000" height="1000">
    <path id="rpass_window" fill="#000000"
        d="M667.211,658.518V513.924l-20.305,13.619c0,0,1.035,75.98,4.76,109.988c0.832,7.711,1.775,14.734,2.736,20.986" />
    <path id="fdriver_window" fill="#000000" d="M339.076,340.024c4.799,27.925,11.037,65.844,12.929,84.746c3.155,32.064,1.757,85.365,1.757,85.365
    l-20.665-15.021v-155.09" />
    <path id="fpass_window" fill="#000000" d="M660.975,340.024c-4.793,27.925-11.018,65.844-12.879,84.746c-3.211,32.064-1.813,85.365-1.813,85.365
    l20.664-15.021v-155.09" />
    <path id="rdriver_window" fill="#000000"
        d="M332.89,658.518V513.924l20.251,13.619c0,0-1.036,75.98-4.76,109.988c-0.845,7.711-1.795,14.734-2.759,20.986" />
    <path id="windshield" fill="#000000" d="M649.268,770.889l-14.07-97.148c-0.031,0.016-0.064,0.031-0.096,0.045l-0.004-0.045
    C603.555,689.611,502.084,690.723,500,690.742c-2.083-0.02-103.554-1.131-135.097-17.002l-0.005,0.045
    c-0.031-0.014-0.064-0.029-0.094-0.045l-14.07,97.148c35.336,29.156,110.617,36.947,149.217,36.924c0.016,0,0.033,0,0.049,0
    s0.033,0,0.049,0C538.65,807.836,613.932,800.045,649.268,770.889z" />
    <path id="sunroof" fill="#000000" d="M594.734,519.004H405.313c-8.644,0-15.678-6.418-15.678-14.328v-62.642c0-7.931,7.034-14.328,15.678-14.328h189.421
    c8.643,0,15.627,6.397,15.627,14.328v62.642C610.361,512.586,603.377,519.004,594.734,519.004z" />
    <path id="rear_window" fill="#000000" d="M500.05,243.65c0,0-120.335-1.424-157.338,56.479l23.114,98.135c0,0,55.503-9.87,134.224-9.87
    c78.618,0,134.173,9.87,134.173,9.87l23.164-98.135C620.334,242.226,500.05,243.65,500.05,243.65z" />
    <path id="pass_taillight" fill="#000000" d="M643.273,890.773c0,0-4.242,20.818-22.246,25.908c-16.664,4.713-53.398,7.838-53.398,5.426
        C567.629,915.641,643.273,890.773,643.273,890.773z" />
    <path id="driver_taillight" fill="#000000" d="M356.729,890.773c0,0,4.242,20.818,22.245,25.908c16.664,4.713,53.398,7.838,53.398,5.426
        C432.372,915.641,356.729,890.773,356.729,890.773z" />
    <path id="pass_headlight" fill="#000000" d="M645.572,113.321c9.967,6.373,16.848,13.737,21.592,21.501c-2.76-1.514-20.768-11.308-38.102-18.633
        c-19.508-8.266-26.803-9.076-26.803-9.076l-6.467-12.625C617.449,100.031,635.316,106.776,645.572,113.321z" />
    <path id="driver_headlight" fill="#000000" d="M354.429,113.321c-9.967,6.373-16.847,13.737-21.591,21.501c2.759-1.514,20.767-11.308,38.102-18.633
        c19.507-8.266,26.802-9.076,26.802-9.076l6.468-12.625C382.551,100.031,364.684,106.776,354.429,113.321z" />
    <path id="rpass_tire" fill="#000000"
        d="M678.664,799.072h4.443h3.85h1.65c2.424,0,4.408-2.035,4.408-4.523V679.041c0-2.486-1.984-4.523-4.408-4.523
    h-1.65h-3.85h-4.443c-1.209,0-2.203,1.016-2.203,2.26v120.033C676.461,798.055,677.455,799.072,678.664,799.072z" />
    <path id="rdriver_tire" fill="#000000" d="M321.337,799.072h-4.443h-3.85h-1.65c-2.424,0-4.408-2.035-4.408-4.523V679.041c0-2.486,1.984-4.523,4.408-4.523h1.65
    h3.85h4.443c1.209,0,2.203,1.016,2.203,2.26v120.033C323.541,798.055,322.546,799.072,321.337,799.072z" />
    <path id="fpass_tire" fill="#000000"
        d="M677.758,324.024h4.443h3.852h1.648c2.424,0,4.408-2.037,4.408-4.525V203.991c0-2.487-1.984-4.524-4.408-4.524
    h-1.648h-3.852h-4.443c-1.213,0-2.203,1.018-2.203,2.261v120.034C675.555,323.005,676.545,324.024,677.758,324.024z" />
    <path id="fdriver_tire" fill="#000000" d="M322.244,324.024H317.8h-3.852H312.3c-2.424,0-4.408-2.037-4.408-4.525V203.991c0-2.487,1.984-4.524,4.408-4.524
    h1.648h3.852h4.443c1.213,0,2.203,1.018,2.203,2.261v120.034C324.447,323.005,323.457,324.024,322.244,324.024z" />
    <path id="rpass_door" fill="none" stroke="#000000" stroke-width="4" stroke-miterlimit="10"
        d="M683.84,504c0,51.584,0,104.354,0,154.518" transform="rotate(0 683.84 504)" />
    <path id="rdriver_door" fill="none" stroke="#000000" stroke-width="4" stroke-miterlimit="10" d="M316.161,504
    c0,51.584,0,104.354,0,154.518" />
    <path id="fpass_door" fill="none" stroke="#000000" stroke-width="4" stroke-miterlimit="10" d="M683.84,340.024
    c0,0,28.199,13.574,35.781,21.042c7.789,7.67,8.541,20.24,4.975,20.734c-3.662,0.473-34.549-11.215-34.549-11.215
    s-3.887-9.012-6.207-9.728c0,44.304,0,93.167,0,143.143" />
    <path id="fdriver_door" fill="none" stroke="#000000" stroke-width="4" stroke-miterlimit="10" d="M316.161,340.024
    c0,0-28.2,13.574-35.781,21.042c-7.789,7.67-8.541,20.24-4.975,20.734c3.662,0.473,34.549-11.215,34.549-11.215
    s3.887-9.012,6.207-9.728c0,44.304,0,93.167,0,143.143" transform="rotate(0 316.16 340.02)" />
    <path id="rear_bumper" fill="none" stroke="#000000" stroke-width="4" stroke-miterlimit="10" d="M320.892,815.072
    c0.433,3.195,0.894,5.992,1.384,8.26c6.779,31.688,15.212,57.172,31.047,73.582c30.629,31.689,146.727,27.33,146.727,27.33
    s115.993,4.359,146.624-27.33c15.936-16.41,24.316-41.895,31.15-73.582c0.484-2.268,0.939-5.064,1.365-8.26" />
    <path id="front_bumper" fill="none" stroke="#000000" stroke-width="4" stroke-miterlimit="10" d="M683.832,183.467c0-2.097,0-4,0-5.69
    c0-21.101-3.518-50.019-34.768-69.935C622.883,91.1,556.342,75.553,500.05,75.553c-56.346,0-122.885,15.546-149.119,32.289
    c-31.148,19.916-34.77,48.834-34.77,69.935c0,1.69,0,3.594,0,5.69" />
    <path d="M654.402,658.518c3.275,21.307,6.752,33.652,6.752,33.652l6.057-25.865v-7.787" />
    <path d="M345.622,658.518c-3.285,21.307-6.73,33.652-6.73,33.652l-6.002-25.865v-7.787" />
    <path d="M666.947,340.024v-34c0,0-2.641,14.584-5.973,34" />
    <path d="M333.097,340.024v-34c0,0,2.641,14.584,5.979,34" />
</svg>