<?xml version="1.0" encoding="UTF-8" standalone="no"?>
<svg
   xmlns:dc="http://purl.org/dc/elements/1.1/"
   xmlns:cc="http://creativecommons.org/ns#"
   xmlns:rdf="http://www.w3.org/1999/02/22-rdf-syntax-ns#"
   xmlns:svg="http://www.w3.org/2000/svg"
   xmlns="http://www.w3.org/2000/svg"
   version="1.1"
   id="svg62"
   width="853.33331"
   height="640"
   viewBox="0 0 853.33331 640">
  <metadata
     id="metadata68">
    <rdf:RDF>
      <cc:Work
         rdf:about="">
        <dc:format>image/svg+xml</dc:format>
        <dc:type
           rdf:resource="http://purl.org/dc/dcmitype/StillImage" />
        <dc:title></dc:title>
      </cc:Work>
    </rdf:RDF>
  </metadata>
  <defs
     id="defs66" />
  <g
     id="layer2">
    <path
       style="fill:#ff0000;fill-opacity:1;stroke-width:0.776647"
       d="m 0,640 c 0,-0.32401 7.6043501,-8.18756 16.898557,-17.47457 l 16.898555,-16.88546 52.417231,0.0448 c 28.829477,0.0246 53.752197,0.28673 55.383817,0.58248 l 2.9666,0.53773 -2.35661,2.25473 c -1.57024,1.50237 -3.59675,2.45875 -6.07318,2.86614 -2.04412,0.33626 -23.29174,0.63223 -47.216931,0.65769 l -43.500347,0.0463 -13.963471,13.97965 -13.963471,13.97966 H 8.7453751 C 3.9354188,640.58915 0,640.32405 0,640.00004 Z"
       id="path122" />
    <path
       style="fill:#ffff00;fill-opacity:1;stroke-width:0.630455"
       d="m 156.27098,483.10187 -2.70417,-0.24254 2.90957,-3.27243 c 1.60027,-1.79984 9.47002,-9.58486 17.48834,-17.30006 l 14.57877,-14.02762 h 9.48413 9.48413 l -17.64429,17.65274 -17.6443,17.65274 -6.624,-0.11015 c -3.6432,-0.0606 -7.84088,-0.21928 -9.32818,-0.35268 z"
       id="path108" />
  </g>
  <g
     id="g70">
    <path
       style="fill:#00ff00;fill-opacity:1;stroke-width:0.316282"
       d="m 192.48614,444.31606 c 0,-0.21375 7.79065,-8.18406 17.31256,-17.71181 l 17.31257,-17.32319 h 9.23649 c 6.11907,0 9.30587,0.11227 9.44206,0.33263 0.11306,0.18295 -7.59223,8.15326 -17.12287,17.71181 l -17.32845,17.37919 h -9.42618 c -7.24311,0 -9.42618,-0.09 -9.42618,-0.38863 z"
       id="path100" />
    <path
       style="fill:#00ff00;fill-opacity:1;stroke-width:0.316282"
       d="m 232.87899,405.80098 c -1.00697,-0.12888 -1.917,-0.32048 -2.0223,-0.42578 -0.33243,-0.33242 4.99148,-5.93489 19.66367,-20.69247 l 14.2363,-14.31916 56.87236,0.0864 56.87236,0.0865 -2.89421,3.08376 -2.89421,3.08375 H 326.00803 279.3031 l -14.70458,14.70713 -14.70458,14.70713 -7.59205,-0.0415 c -4.17563,-0.0228 -8.41594,-0.14691 -9.4229,-0.27579 z"
       id="path102" />
    <path
       style="fill:#00ff00;fill-opacity:1;stroke-width:0.316282"
       d="m 585.94268,391.43276 -14.70586,-14.72878 h -46.83499 -46.83499 l -2.92561,-3.16282 -2.9256,-3.16283 h 56.94653 56.94653 l 14.03109,14.15364 c 13.37264,13.48943 19.82756,20.21954 19.82756,20.67285 0,0.52192 -2.02323,0.68504 -10.12104,0.81603 l -8.69776,0.1407 z"
       id="path104" />
    <path
       style="fill:#00ff00;fill-opacity:1;stroke-width:0.316282"
       d="m 621.52423,427.00969 -17.71075,-17.72863 h 10.32959 10.32959 l 13.89655,13.9955 c 7.6431,7.69752 15.26493,15.48711 16.93741,17.3102 2.6383,2.87589 2.96909,3.35741 2.49866,3.63725 -0.32356,0.19248 -4.17706,0.3612 -9.55625,0.41842 l -9.01404,0.0959 z"
       id="path106" />
    <path
       style="fill:#ffff00;fill-opacity:1;stroke-width:0.630455"
       d="m 131.23514,505.63062 17.6443,-17.65274 7.88491,0.0629 c 12.84089,0.10234 13.41154,-1.62854 -5.95971,18.07676 l -16.87488,17.16587 h -10.16945 -10.16946 z"
       id="path110" />
    <path
       style="fill:#ffff00;fill-opacity:1;stroke-width:0.630455"
       d="m 660.82155,465.94398 -17.64852,-17.68476 h 9.45698 9.45698 l 16.98946,16.9982 c 9.3442,9.34901 16.76666,17.22181 16.49435,17.49512 -0.2723,0.27331 -4.23137,0.58227 -8.79792,0.68657 l -8.30281,0.18963 z"
       id="path112" />
    <path
       style="fill:#ffff00;fill-opacity:1;stroke-width:0.630455"
       d="m 699.27508,505.63062 -17.6443,-17.65274 h 10.08945 10.08945 l 11.34576,11.50581 c 21.46474,21.76753 22.14851,22.51831 21.10989,23.17889 -0.52012,0.33081 -4.63574,0.60582 -9.14582,0.61113 l -8.20014,0.01 z"
       id="path114" />
    <path
       style="fill:#ffff00;fill-opacity:1;stroke-width:0.630455"
       d="m 740.25465,547.87111 -13.85926,-13.87001 -46.34381,-0.004 -46.34382,-0.004 -2.99466,-2.56681 c -1.64706,-1.41174 -2.99466,-2.92437 -2.99466,-3.3614 0,-1.01864 28.72943,-1.62668 76.92571,-1.6281 l 34.36999,-10e-4 17.6211,17.65274 17.62109,17.65274 h -10.07121 -10.07121 z"
       id="path116" />
    <path
       style="fill:#ffff00;fill-opacity:1;stroke-width:0.630455"
       d="m 93.790345,544.08838 17.195135,-17.65274 37.2344,0.0644 c 41.74207,0.0722 72.51265,0.64224 73.22603,1.35664 0.69166,0.69264 -2.22222,3.62056 -4.78412,4.80718 -1.95796,0.90688 -7.36111,1.04359 -47.95361,1.21334 l -45.74701,0.19129 -13.82561,13.83633 -13.825603,13.83633 h -9.357374 -9.357374 z"
       id="path118" />
    <path
       style="fill:#ff0000;fill-opacity:1;stroke-width:0.630455"
       d="m 37.927806,601.51557 c -1.866051,-0.41979 -1.655686,-0.66349 15.717688,-18.2086 l 17.609053,-17.78312 8.554828,0.01 c 4.705156,0.005 8.931817,0.24865 9.392581,0.54075 0.607939,0.38541 -3.951988,5.39825 -16.622539,18.27355 l -17.46029,17.74243 -7.649978,-0.0746 c -4.207489,-0.041 -8.501092,-0.26606 -9.541343,-0.50007 z"
       id="path120" />
    <path
       style="fill:#ff0000;fill-opacity:1;stroke-width:0.776647"
       d="M 817.42143,626.60945 803.45796,612.6298 h -46.64875 -46.64875 l -2.66748,-2.75214 c -2.21227,-2.28249 -2.4702,-2.87687 -1.51148,-3.48302 0.69377,-0.43864 23.09476,-0.73564 56.02388,-0.74278 l 54.86788,-0.0119 16.42951,16.82153 c 11.74837,12.0287 16.14151,17.00421 15.41871,17.46268 -0.55594,0.35263 -4.6841,0.64649 -9.17369,0.65303 l -8.16289,0.0119 z"
       id="path124" />
    <path
       style="fill:#ff0000;fill-opacity:1;stroke-width:0.776647"
       d="m 777.5527,584.14935 c -14.92224,-15.0081 -17.28448,-17.69438 -16.00163,-18.19663 0.82777,-0.32408 4.74074,-0.61381 8.6955,-0.64383 l 7.19045,-0.0546 17.27394,17.52825 c 9.50067,9.64053 17.39043,17.85358 17.53282,18.25121 0.14991,0.41865 -3.4124,0.72297 -8.46277,0.72297 h -8.72165 z"
       id="path126" />
  </g>
  <g
     id="layer1" />
</svg>
