<svg xmlns="http://www.w3.org/2000/svg" xmlns:xlink="http://www.w3.org/1999/xlink" viewBox="0 0 192 192">
    <circle fill="#009688" cx="96" cy="96" r="72"/>
    <defs>
        <path id="a" d="M171.77 90.362l-3.945.846a71.702 71.702 0 00-4.314-20.273l3.953-.847C156.867 40.873 128.873 20 96 20c-34.104 0-62.961 22.463-72.583 53.4a75.096 75.096 0 00-2.541 11.025A76.548 76.548 0 0020 96c0 1.898.093 3.775.23 5.639l3.946-.846a71.653 71.653 0 004.314 20.272l-3.953.847C35.134 151.126 63.126 172 96 172c41.974 0 76-34.027 76-76a77.34 77.34 0 00-.23-5.638z"/>
    </defs>
    <clipPath id="b">
        <use xlink:href="#a" overflow="visible"/>
    </clipPath>
    <g clip-path="url(#b)">
        <path fill="#E0E0E0" d="M171.77 90.362l-15.374 3.295c.029.779.059 1.557.059 2.343 0 33.334-27.12 60.454-60.454 60.454-25.342 0-47.078-15.681-56.052-37.844l-15.411 3.302C35.134 151.126 63.126 172 96 172c41.974 0 76-34.027 76-76a77.34 77.34 0 00-.23-5.638z"/>
    </g>
    <g clip-path="url(#b)">
        <path fill="#E0E0E0" d="M35.546 96c0-33.335 27.119-60.455 60.454-60.455 25.343 0 47.078 15.682 56.051 37.845l15.412-3.303C156.867 40.874 128.873 20 96 20c-34.104 0-62.961 22.462-72.583 53.4a75.747 75.747 0 00-2.541 11.026A76.525 76.525 0 0020 96c0 1.898.093 3.775.23 5.639l15.374-3.295c-.029-.779-.058-1.558-.058-2.344z"/>
    </g>
    <path opacity=".1" d="M144.374 85.651l-13.818 20.728h-82.91l50.048 50.047c31.996-.88 57.846-26.73 58.728-58.726l-12.048-12.049z"/>
    <path fill="#EEE" d="M61.464 85.651h82.91l-13.818 20.727h-82.91z"/>
    <path opacity=".1" d="M130.556 106.378l13.818-20.727h-.002l-96.726 20.727z"/>
</svg>
