<svg viewBox=".333 .667 501.334 480" xmlns="http://www.w3.org/2000/svg" xmlns:xlink="http://www.w3.org/1999/xlink">
    <linearGradient id="a" x1="-21.471%" x2="84.198%" y1="37.806%" y2="97.817%">
        <stop offset="0" stop-color="#1a237e" stop-opacity=".2"/>
        <stop offset="1" stop-color="#1a237e" stop-opacity=".02"/>
    </linearGradient>
	<g fill="none" fill-rule="evenodd">
		<path d="m32.333 416.667c-17.68 0-32-14.32-32-32 0-5.814 1.547-11.28 4.267-15.974l202.667-352c5.52-9.573 15.866-16.026 27.733-16.026s22.213 6.453 27.733 16.026l202.667 352c2.72 4.694 4.267 10.16 4.267 15.974 0 17.68-14.32 32-32 32z" fill="#03a9f4"/>
		<path d="m235 150v266.667h266.667z" fill="url(#a)"/>
		<path d="m207.267 16.693-202.667 352c-2.72 4.694-4.267 10.16-4.267 15.974 0 17.68 14.32 32 32 32h202.667v-416c-11.867 0-22.213 6.453-27.733 16.026z" fill="#039be5"/>
		<path d="m235 150 181.333 320-10.666 10.667-170.667-64-170.667 64-10.666-10.667z" fill="#8d8d8d"/>
		<path d="m235 150 181.333 320-10.666 10.667-170.667-64" fill="#7d7d7d"/>
    </g>
</svg>
